<?xml version="1.0" standalone="no"?>
<!DOCTYPE svg PUBLIC "-//W3C//DTD SVG 20010904//EN"
 "http://www.w3.org/TR/2001/REC-SVG-20010904/DTD/svg10.dtd">
<svg version="1.0" xmlns="http://www.w3.org/2000/svg"
 width="348.000000pt" height="348.000000pt" viewBox="0 0 348.000000 348.000000"
 preserveAspectRatio="xMidYMid meet">
<metadata>
Created by potrace 1.11, written by Peter Selinger 2001-2013
</metadata>
<g transform="translate(0.000000,348.000000) scale(0.100000,-0.100000)"
fill="#000000" stroke="none">
<path d="M742 3359 c-13 -5 -38 -11 -55 -14 -150 -25 -360 -170 -442 -305 -79
-130 -80 -134 -116 -269 -18 -71 -19 -115 -19 -1023 0 -827 2 -958 16 -1021
37 -168 106 -298 216 -404 90 -87 251 -174 351 -188 23 -4 47 -11 53 -16 6 -5
424 -9 979 -9 1023 0 971 -2 1130 43 47 13 155 69 205 106 157 115 245 256
295 472 13 57 15 198 15 1022 0 661 -4 965 -11 984 -6 16 -13 42 -16 58 -23
145 -166 356 -298 437 -104 65 -188 102 -252 113 -18 3 -44 10 -58 15 -34 13
-1961 12 -1993 -1z m845 -660 c53 -13 120 -36 143 -50 8 -5 24 -13 35 -18 41
-18 124 -91 167 -148 42 -54 73 -112 97 -175 8 -22 20 -29 73 -41 83 -21 122
-36 188 -74 73 -42 171 -137 217 -209 55 -85 103 -232 103 -317 0 -43 3 -49
28 -57 128 -47 251 -169 276 -275 23 -98 26 -125 20 -170 -13 -105 -58 -200
-128 -271 -43 -43 -141 -104 -168 -104 -9 0 -20 -6 -26 -13 -16 -19 -1580 -17
-1637 2 -87 29 -122 46 -175 85 -67 49 -91 76 -131 144 -118 202 -80 451 93
606 53 49 158 106 193 106 12 0 30 6 40 14 18 13 17 14 -7 47 -33 44 -79 143
-90 194 -54 233 25 465 207 607 49 39 69 51 146 87 77 37 244 52 336 30z"/>
</g>
</svg>
